<?xml version="1.0" encoding="UTF-8"?>
<svg id="Logo" xmlns="http://www.w3.org/2000/svg" viewBox="0 0 1000 205">
  <defs>
    <style>
      .cls-1 {
        fill: #fff;
      }
    </style>
  </defs>
  <path class="cls-1" d="M87.89,119.35l-.07,2.42c-.24,8.34-.96,14.73-2.25,19.95-7.7,2.31-16.9,3.49-27.37,3.49s-20.01-1.26-27.75-3.74c-2.94-7.8-4.56-18.18-4.92-31.63h88.42l.02-2.46c.22-23.48-8.51-39.19-25.96-46.71-5.33-13.42-15.43-20.22-30.03-20.22-16.35,0-26.56,6.5-32.03,20.43C8.73,68.07,0,82.27,0,103.11s8.98,35.35,26.69,42.29c5.92,13.56,16.24,20.16,31.52,20.16,16.77,0,26.79-6.35,31.42-19.95,13.33-4.96,21.56-12.97,23.84-23.23l.67-3.03h-26.25ZM57.99,60.57c10.57,0,19.14,1.27,26.16,3.89,2.5,6.78,3.91,15.29,4.28,25.91H25.81c.53-11,1.83-19.24,4.03-25.66,7.94-2.75,17.4-4.14,28.15-4.14ZM540.41,3.62v134.6c1.28.12,2.64.2,3.98.2h17.2v24.59h-9.17c-11.16,0-16.29-6.14-16.92-20.45-12.76-2.63-19.23-11.42-19.23-26.17V3.62h24.15ZM800.44,88.84v74.04h-24.15v-90.09c0-3.57-.27-6.97-.8-10.11-5.18-1.55-11.04-2.33-17.44-2.33-12.16,0-27.87,5.01-34.07,15.98v86.56h-24.15V43.11h24.15v18.08c7.17-13.48,18.27-20.75,32.06-20.75,12.45,0,20.63,6.37,23.73,18.43,13.53,5.07,20.66,15.4,20.66,29.97ZM905.05,119.35l-.07,2.42c-.24,8.34-.96,14.73-2.25,19.95-7.7,2.31-16.9,3.49-27.36,3.49s-20.01-1.26-27.75-3.74c-2.94-7.8-4.56-18.18-4.92-31.63h88.42l.02-2.46c.22-23.48-8.51-39.19-25.96-46.71-5.33-13.42-15.43-20.22-30.03-20.22-16.35,0-26.56,6.5-32.03,20.43-17.23,7.2-25.96,21.41-25.96,42.24s8.98,35.35,26.69,42.29c5.92,13.56,16.24,20.16,31.52,20.16,16.77,0,26.79-6.35,31.41-19.96,13.33-4.96,21.56-12.97,23.84-23.23l.67-3.03h-26.25ZM875.15,60.57c10.57,0,19.14,1.27,26.16,3.89,2.5,6.78,3.91,15.29,4.28,25.91h-62.61c.53-11,1.83-19.24,4.03-25.66,7.94-2.75,17.4-4.14,28.15-4.14ZM240.01,118.16l-.32,1.76c-5.2,28.57-25.48,45.63-54.26,45.63-35.16,0-57-24.01-57-62.67s22.64-62.44,57.68-62.44c29.01,0,48.29,15.48,52.9,42.48l.3,1.74h-23.37l-.25-1.19c-3.25-15.43-14.47-24.64-30.03-24.64-20.88,0-33.85,16.88-33.85,44.05s13.23,44.05,34.53,44.05c16.02,0,26.93-9.8,30.71-27.59l.25-1.18h22.71ZM356.34,57.28c-10.42-11.01-25.23-16.84-42.83-16.84s-32.41,5.82-42.83,16.84c-10.46,11.05-15.99,26.82-15.99,45.6,0,38.65,22.54,62.67,58.82,62.67s58.81-24.01,58.81-62.67c0-18.78-5.53-34.55-15.99-45.6ZM348.95,102.89c0,27.58-13.25,44.05-35.44,44.05s-35.44-16.47-35.44-44.05,12.92-44.05,35.44-44.05,35.44,16.06,35.44,44.05ZM485.07,57.86c-9.57-11.39-22.82-17.41-38.3-17.41s-27.28,5.45-35.89,15.83v-13.11h-22.02v161.59h22.7v-53.23c8.18,9.2,19.56,14.03,33.17,14.03,32.23,0,54.74-26.05,54.74-63.35,0-17.81-4.98-33.14-14.4-44.35ZM476.09,103.11c0,27.17-12.89,44.05-33.63,44.05s-32.72-17.05-32.72-44.5,12.23-43.59,32.72-43.59,33.63,16.88,33.63,44.05ZM676.72,160.22c-1.3-8.91-1.57-21.67-1.57-38.07v-42.82c0-25.8-15.44-38.88-45.9-38.88s-49.75,15.04-49.75,40.24v1.49h21.77l.02-1.47c.2-14.96,9.46-22.54,27.51-22.54,16.3,0,24.56,6.51,24.56,19.35,0,7.75-2.86,10.37-12.75,11.66l-27.19,3.63c-26.27,3.52-39.59,15.53-39.59,35.69,0,22.52,16.86,37.07,42.95,37.07,16.4,0,29.65-5.89,37.79-16.68.17,4.28.61,8.61,1.3,12.71l.21,1.25h20.66v-2.4l-.02-.22ZM653.36,103.75v8.43c0,21.72-12.62,35.21-32.95,35.21-14.59,0-23.66-7.24-23.66-18.9,0-6.92,3.44-15.73,19.83-18.47l36.77-6.27ZM976.89,61.1v71.24c0,10.29,1.9,14.59,13.69,14.59,1.15,0,3.55,0,7.77-.45l1.65-.17v18.15l-1.3.17c-5.07.66-10.08.92-17.87.92-18.76,0-26.42-8.31-26.42-28.68V61.1h-20.39v-17.94h20.39V12.27l22.47-12.02v42.91h23.11v17.94h-23.11Z"/>
</svg>